<?xml version="1.0" encoding="UTF-8" standalone="no"?>
<!-- Generator: Adobe Illustrator 22.1.0, SVG Export Plug-In . SVG Version: 6.00 Build 0)  -->

<svg
   xmlns:dc="http://purl.org/dc/elements/1.1/"
   xmlns:cc="http://creativecommons.org/ns#"
   xmlns:rdf="http://www.w3.org/1999/02/22-rdf-syntax-ns#"
   xmlns:svg="http://www.w3.org/2000/svg"
   xmlns="http://www.w3.org/2000/svg"
   xmlns:sodipodi="http://sodipodi.sourceforge.net/DTD/sodipodi-0.dtd"
   xmlns:inkscape="http://www.inkscape.org/namespaces/inkscape"
   version="1.1"
   id="Ebene_1"
   x="0px"
   y="0px"
   viewBox="0 0 704.69999 218.30001"
   xml:space="preserve"
   inkscape:version="0.91 r13725"
   sodipodi:docname="Logo.svg"
   width="704.70001"
   height="218.3"><metadata
   id="metadata67"><rdf:RDF><cc:Work
       rdf:about=""><dc:format>image/svg+xml</dc:format><dc:type
         rdf:resource="http://purl.org/dc/dcmitype/StillImage" /><dc:title></dc:title></cc:Work></rdf:RDF></metadata><defs
   id="defs65" /><sodipodi:namedview
   pagecolor="#ffffff"
   bordercolor="#666666"
   borderopacity="1"
   objecttolerance="10"
   gridtolerance="10"
   guidetolerance="10"
   inkscape:pageopacity="0"
   inkscape:pageshadow="2"
   inkscape:window-width="2560"
   inkscape:window-height="1377"
   id="namedview63"
   showgrid="false"
   fit-margin-top="0"
   fit-margin-left="0"
   fit-margin-right="0"
   fit-margin-bottom="0"
   inkscape:zoom="0.39643878"
   inkscape:cx="352.35001"
   inkscape:cy="106.62755"
   inkscape:window-x="-8"
   inkscape:window-y="-8"
   inkscape:window-maximized="1"
   inkscape:current-layer="Ebene_1" />
<style
   type="text/css"
   id="style3">
	.st0{fill:#EE7326;}
	.st1{fill:#FFFFFF;}
	.st2{fill:#004B87;}
</style>
<g
   id="g5"
   transform="translate(-68.6,-188.5)">
	<g
   id="g7">
		<polygon
   class="st0"
   points="68.6,243.1 68.6,352.2 163.1,406.8 257.6,352.2 257.6,243.1 163.1,188.5 "
   id="polygon9"
   style="fill:#ee7326" />
		<g
   id="g11">
			<polygon
   class="st1"
   points="163.1,352.2 68.6,352.2 115.8,270.4 "
   id="polygon13"
   style="fill:#ffffff" />
			<polygon
   class="st1"
   points="257.6,352.2 163.1,352.2 210.3,270.4 "
   id="polygon15"
   style="fill:#ffffff" />
			<polygon
   class="st1"
   points="210.3,270.4 115.8,270.4 163.1,188.5 "
   id="polygon17"
   style="fill:#ffffff" />
		</g>
	</g>
	<g
   id="g19">
		<path
   class="st2"
   d="m 301,335 3.6,0 0,29.6 -3.6,0 0,-29.6 z"
   id="path21"
   inkscape:connector-curvature="0"
   style="fill:#004b87" />
		<path
   class="st2"
   d="m 337.4,335 0,29.6 -3.7,0 -16.6,-23.4 -0.1,0 0,23.4 -3.6,0 0,-29.6 3.6,0 16.7,23.6 0.1,0 0,-23.6 3.6,0 z"
   id="path23"
   inkscape:connector-curvature="0"
   style="fill:#004b87" />
		<path
   class="st2"
   d="m 371,349.4 0,11.7 c -2.8,2.4 -7,3.8 -11.5,3.8 -8.5,0 -14.8,-5.8 -14.8,-15 0,-8.8 5.8,-15.1 14.7,-15.1 4,0 8.2,1.4 11.3,4.6 l -2.6,2.2 c -2.3,-2.3 -5.3,-3.4 -8.7,-3.4 -6.2,0 -10.9,4.6 -10.9,11.7 0,6.7 4.4,11.6 11,11.6 3,0 5.7,-0.6 7.9,-2.3 l 0,-6.5 -8.6,0 0,-3.3 12.2,0 z"
   id="path25"
   inkscape:connector-curvature="0"
   style="fill:#004b87" />
		<path
   class="st2"
   d="m 378.8,335 18.2,0 0,3.3 -14.5,0 0,9.9 11.9,0 0,3.3 -11.9,0 0,9.7 15.4,0 0,3.3 -19,0 0,-29.5 z"
   id="path27"
   inkscape:connector-curvature="0"
   style="fill:#004b87" />
		<path
   class="st2"
   d="m 428.8,335 0,29.6 -3.7,0 -16.6,-23.4 -0.1,0 0,23.4 -3.6,0 0,-29.6 3.6,0 16.7,23.6 0.1,0 0,-23.6 3.6,0 z"
   id="path29"
   inkscape:connector-curvature="0"
   style="fill:#004b87" />
		<path
   class="st2"
   d="m 437.6,335 3.6,0 0,29.6 -3.6,0 0,-29.6 z"
   id="path31"
   inkscape:connector-curvature="0"
   style="fill:#004b87" />
		<path
   class="st2"
   d="m 450,335 18.1,0 0,3.3 -14.5,0 0,9.9 11.9,0 0,3.3 -11.9,0 0,9.7 15.4,0 0,3.3 -19,0 0,-29.5 z"
   id="path33"
   inkscape:connector-curvature="0"
   style="fill:#004b87" />
		<path
   class="st2"
   d="m 475.5,352.6 0,-17.6 3.6,0 0,17.3 c 0,5.5 3,9.1 7.8,9.1 4.6,0 7.9,-3.4 7.9,-9.1 l 0,-17.3 3.6,0 0,17.6 c 0,7.6 -4.5,12.3 -11.5,12.3 -6.7,0 -11.4,-4.5 -11.4,-12.3 z"
   id="path35"
   inkscape:connector-curvature="0"
   style="fill:#004b87" />
		<path
   class="st2"
   d="m 523.4,364.6 -7.6,-11.3 -5.5,0 0,11.3 -3.6,0 0,-29.6 10.5,0 c 6.8,0 9.8,3.9 9.8,9.2 0,5 -2.8,7.9 -7.1,8.8 l 0,0 7.9,11.6 -4.4,0 z m -13.1,-14.6 5.9,0 c 4.9,0 7,-2.5 7,-5.9 0,-3.7 -2.4,-5.8 -6.5,-5.8 l -6.4,0 0,11.7 z"
   id="path37"
   inkscape:connector-curvature="0"
   style="fill:#004b87" />
		<path
   class="st2"
   d="m 555.2,356.6 c 0,4.7 -3.2,8 -9.9,8 l -10.8,0 0,-29.6 9.7,0 c 5.8,0 9.6,2.2 9.6,7.2 0,2.9 -1.5,5.7 -4.7,6.8 l 0,0.1 c 3.3,0.7 6.1,3.2 6.1,7.5 z m -17,-8.9 6,0 c 2.8,0 5.9,-1.2 5.9,-4.8 0,-2.8 -1.9,-4.6 -6.6,-4.6 l -5.3,0 0,9.4 z m 13.2,8.6 c 0,-3.3 -2.4,-5.3 -6.9,-5.3 l -6.3,0 0,10.3 6.1,0 c 4.2,0 7.1,-1.6 7.1,-5 z"
   id="path39"
   inkscape:connector-curvature="0"
   style="fill:#004b87" />
		<path
   class="st2"
   d="m 561.8,352.6 0,-17.6 3.6,0 0,17.3 c 0,5.5 3,9.1 7.8,9.1 4.6,0 7.9,-3.4 7.9,-9.1 l 0,-17.3 3.6,0 0,17.6 c 0,7.6 -4.5,12.3 -11.5,12.3 -6.7,0 -11.4,-4.5 -11.4,-12.3 z m 5.3,-24.2 c 0,-1.3 1,-2.4 2.4,-2.4 1.3,0 2.4,1.1 2.4,2.4 0,1.3 -1.1,2.4 -2.4,2.4 -1.4,0 -2.4,-1.1 -2.4,-2.4 z m 7.6,0 c 0,-1.3 1.1,-2.3 2.4,-2.3 1.3,0 2.4,1.1 2.4,2.3 0,1.2 -1,2.3 -2.4,2.3 -1.4,0.1 -2.4,-1 -2.4,-2.3 z"
   id="path41"
   inkscape:connector-curvature="0"
   style="fill:#004b87" />
		<path
   class="st2"
   d="m 609.6,364.6 -7.6,-11.3 -5.5,0 0,11.3 -3.6,0 0,-29.6 10.5,0 c 6.8,0 9.8,3.9 9.8,9.2 0,5 -2.8,7.9 -7.1,8.8 l 0,0 7.9,11.6 -4.4,0 z m -13.1,-14.6 5.9,0 c 4.9,0 7,-2.5 7,-5.9 0,-3.7 -2.4,-5.8 -6.5,-5.8 l -6.4,0 0,11.7 z"
   id="path43"
   inkscape:connector-curvature="0"
   style="fill:#004b87" />
		<path
   class="st2"
   d="m 618.6,349.8 c 0,-8.5 6,-15.1 14.9,-15.1 8.3,0 14.8,6 14.8,15.1 0,9.1 -6.4,15.1 -14.8,15.1 -8.9,0 -14.9,-6.5 -14.9,-15.1 z m 25.9,0 c 0,-6.8 -4.9,-11.6 -11,-11.6 -6.6,0 -11.1,5.2 -11.1,11.6 0,6.4 4.5,11.6 11.1,11.6 6.1,0 11,-4.8 11,-11.6 z"
   id="path45"
   inkscape:connector-curvature="0"
   style="fill:#004b87" />
	</g>
	<g
   id="g47">
		<path
   class="st2"
   d="m 342.6,270 c 11.3,3 15,9.9 15,18.4 0,11.7 -7.6,20.5 -23.1,20.5 l -33.5,0 0,-72.9 28.6,0 c 16.7,0 24.2,6.9 24.2,17.8 0,5.9 -2.4,12.5 -11.2,15.9 l 0,0.3 0,0 z m -22.7,-5.3 6.4,0 c 4.8,0 7.9,-2.2 7.9,-5.8 0,-3.4 -2.6,-6 -8.1,-6 l -6.2,0 0,11.8 z m 17.5,20.8 c 0,-3.7 -2.7,-6.5 -9,-6.5 l -8.5,0 0,13.1 8.6,0 c 5.3,0.1 8.9,-2.2 8.9,-6.6 z"
   id="path49"
   inkscape:connector-curvature="0"
   style="fill:#004b87" />
		<path
   class="st2"
   d="m 405.8,297.1 -23.4,0 -3.7,11.8 -20.4,0 26.5,-72.9 18.6,0 26.5,72.9 -20.4,0 -3.7,-11.8 z m -5.1,-16.4 -6.5,-21 -0.2,0 -6.5,21 13.2,0 z"
   id="path51"
   inkscape:connector-curvature="0"
   style="fill:#004b87" />
		<path
   class="st2"
   d="m 431.2,278.3 0,-42.3 19.8,0 0,41.2 c 0,7.7 3.4,14.6 10.9,14.6 6.4,0 11.2,-5.3 11.2,-14.6 l 0,-41.2 19.6,0 0,42.3 c 0,19.1 -10.9,31.7 -30.9,31.7 -18.3,-0.1 -30.6,-11.2 -30.6,-31.7 z"
   id="path53"
   inkscape:connector-curvature="0"
   style="fill:#004b87" />
		<path
   class="st2"
   d="m 520.6,248.9 -20.1,0 0,-12.9 54.7,0 0,12.9 -20.2,0 0,60 -14.4,0 0,-60 z"
   id="path55"
   inkscape:connector-curvature="0"
   style="fill:#004b87" />
		<path
   class="st2"
   d="m 566.1,236 46.6,0 0,12.9 -32.4,0 0,17.5 26,0 0,12.7 -26,0 0,16.9 34.5,0 0,12.9 -48.8,0 0.1,-72.9 z"
   id="path57"
   inkscape:connector-curvature="0"
   style="fill:#004b87" />
		<path
   class="st2"
   d="m 669.6,294.3 -28,0 -5,14.6 -15.1,0 27,-72.9 13.9,0 27.1,72.9 -15.1,0 -4.8,-14.6 z m -4.2,-12.3 -9.8,-28.6 -0.1,0 -9.7,28.6 19.6,0 z"
   id="path59"
   inkscape:connector-curvature="0"
   style="fill:#004b87" />
		<path
   class="st2"
   d="m 773.3,236 0,72.9 -14.3,0 0,-45.3 -0.2,0 -17.8,31.5 -9.4,0 -17.8,-31.5 -0.2,0 0,45.3 -14.3,0 0,-72.9 14.5,0 22.4,41.5 0.2,0 22.3,-41.5 14.6,0 z"
   id="path61"
   inkscape:connector-curvature="0"
   style="fill:#004b87" />
	</g>
</g>
</svg>